<svg xmlns="http://www.w3.org/2000/svg" viewBox="0 0 1400 900" width="1400" height="900">
  <defs>
    <linearGradient id="sky3" x1="0" y1="0" x2="0" y2="1">
      <stop offset="0%" stop-color="#dbe6f2"/><stop offset="100%" stop-color="#f4f7fa"/>
    </linearGradient>
  </defs>
  <rect width="1400" height="900" fill="url(#sky3)"/>
  <circle cx="1148.0" cy="144.0" r="70" fill="#ffffff" opacity="0.7"/>
  
        <rect x="0" y="630.0" width="1400" height="270.0" fill="#a8a196"/>
        <rect x="140.0" y="270.0" width="1120.0" height="126.00000000000001" rx="4" fill="#8b94a0"/>
        <rect x="420.0" y="396.0" width="196.00000000000003" height="126.00000000000001" rx="6" fill="#1428A0"/>
        <circle cx="518.0" cy="396.0" r="26" fill="#cfd6de"/>
        <rect x="784.0000000000001" y="360.0" width="280.0" height="198.0" rx="8" fill="#eef2f7" stroke="#1428A0" stroke-width="4"/>
        <circle cx="840.0" cy="423.0" r="9" fill="#1428A0" opacity="0.6"/><circle cx="910.0" cy="423.0" r="9" fill="#1428A0" opacity="0.6"/><circle cx="980.0" cy="423.0" r="9" fill="#1428A0" opacity="0.6"/><circle cx="840.0" cy="486.0" r="9" fill="#1428A0" opacity="0.6"/><circle cx="910.0" cy="486.0" r="9" fill="#1428A0" opacity="0.6"/><circle cx="980.0" cy="486.0" r="9" fill="#1428A0" opacity="0.6"/>
        <path d="M616.0 459.0C700.0 522.0 700.0 396.0 784.0000000000001 450.0" stroke="#33404f" stroke-width="6" fill="none"/>
  <rect x="0" y="810" width="1400" height="90" fill="#0f172a" opacity="0.06"/>
  <text x="46" y="858" font-family="Inter,Segoe UI,Arial,sans-serif" font-size="30" font-weight="600" fill="#475569">Đấu nối loadcell và hộp nối tín hiệu</text>
  <text x="46" y="60" font-family="Inter,Segoe UI,Arial,sans-serif" font-size="22" font-weight="600" fill="#94a3b8">ẢNH MINH HỌA — thay bằng ảnh thật trong CMS</text>
</svg>